<svg xmlns="http://www.w3.org/2000/svg" viewBox="0 0 197 31.1">
<style type="text/css">
	.st0{fill:#FFFFFF;}
</style>
<path class="st0" d="M172.1,13.8h-4v11.9h1.5v-4.9h2.5c2.3,0,4-1.4,4-3.5S174.4,13.8,172.1,13.8z M172.1,19.4h-2.5v-4.2h2.5
	c1.5,0,2.5,0.8,2.5,2.1S173.6,19.4,172.1,19.4L172.1,19.4z"/>
<path class="st0" d="M179,18.1v-0.9h-1.4v8.4h1.4v-5.4c0.2-1.1,1.1-1.8,2.2-1.7h0.8v-1.4h-0.7C180.4,17.1,179.6,17.5,179,18.1z"/>
<path class="st0" d="M187,17c-2.4,0-4.3,2-4.3,4.5c0,2.4,2,4.3,4.5,4.3c2.4,0,4.3-2,4.3-4.4c0-2.4-1.9-4.3-4.3-4.4
	C187.1,17,187,17,187,17z M187,24.5c-1.7,0-3.1-1.3-3.2-3c0-1.7,1.3-3.1,3-3.2s3.1,1.3,3.2,3c0,0,0,0.1,0,0.1
	C190,23.1,188.7,24.4,187,24.5C187,24.5,187,24.5,187,24.5z"/>
<path class="st0" d="M192.9,8.8H166c-2.3,0-4.2,1.9-4.2,4.2c0,0,0,0,0,0v13.6c0,2.3,1.9,4.2,4.2,4.2h26.8c2.3,0,4.1-1.9,4.1-4.2V13
	C197.1,10.7,195.2,8.8,192.9,8.8C192.9,8.8,192.9,8.8,192.9,8.8z M163.4,12.9c0-1.5,1.2-2.7,2.7-2.7h26.9c1.5,0,2.7,1.2,2.7,2.7v0
	v13.6c0,1.5-1.2,2.7-2.7,2.7H166c-1.5,0-2.7-1.2-2.7-2.7L163.4,12.9z"/>
<path class="st0" d="M148.5,16.4c-0.3,0-0.7,0-1,0.1h-0.2l0.1-0.2l5.1-7.6h-3l-7.1,10.6c-0.9,1.3-1.3,2.8-1.3,4.3
	c0,4.1,3.3,7.4,7.4,7.4c4.1,0,7.4-3.3,7.4-7.4C155.9,19.4,152.8,16.4,148.5,16.4z M148.5,28.3c-2.6,0-4.6-2.2-4.6-4.7
	c0-2.6,2.2-4.6,4.7-4.6c2.5,0,4.6,2.1,4.6,4.6c0.1,2.5-1.8,4.5-4.2,4.7C148.8,28.3,148.6,28.3,148.5,28.3z"/>
<path class="st0" d="M24.3,8.4c-6.6,0-11,5-11,11.3S17.4,31,24.2,31c4,0.2,7.7-1.9,9.6-5.3l-2.5-1.6c-1.4,2.7-4.2,4.4-7.2,4.3
	c-4.4,0-8-3.5-8.1-7.9c0-0.1,0-0.2,0-0.3h18.4v-0.8C34.5,12.4,29.9,8.4,24.3,8.4z M16.2,17.7c0.7-3.9,4.1-6.7,8-6.7
	c3.9-0.1,7.1,2.8,7.4,6.7H16.2z"/>
<polygon class="st0" points="0,8.8 0,30.8 2.9,30.8 2.9,11.4 13.2,11.4 13.2,8.8 "/>
<path class="st0" d="M126.6,19.4c0-7-4.6-11-10.2-11c-6.6,0-11,5-11,11.3s4.1,11.3,11,11.3c4,0.2,7.7-1.9,9.6-5.3l-2.5-1.6
	c-1.3,2.7-4.1,4.4-7.2,4.3c-4.4,0.1-8-3.5-8.1-7.9c0-0.1,0-0.2,0-0.3h18.4L126.6,19.4z M108.4,17.7c0.7-3.9,4.1-6.7,8-6.7
	c3.9-0.1,7.1,2.8,7.4,6.7H108.4z"/>
<path class="st0" d="M94.4,8.5c-3-0.1-5.8,1.5-7.3,4c-1.2-2.6-3.9-4.1-6.7-4c-2.6-0.1-5,1.1-6.5,3.2V8.8H71v22h2.8V16.6
	c0.1-3.1,2.7-5.5,5.8-5.4c3.6,0,5.5,2.7,5.5,6.2v13.4h2.9V16.9c0-4.3,3.1-5.8,5.9-5.8c3.5,0,5.6,2.7,5.6,6.2v13.4h2.9V17.4
	C102.4,12,99.5,8.5,94.4,8.5z"/>
<path class="st0" d="M55.7,11.4c-2-1.9-4.6-2.9-7.4-2.9c-6.5,0-11.1,4.9-11.1,11.3s4.6,11.3,11.1,11.3c2.7,0,5.4-1,7.4-2.9v2.5h2.8
	V8.8h-2.8L55.7,11.4z M48.2,28.3c-4.7,0-8.1-3.8-8.1-8.4s3.3-8.5,8.1-8.5s8,3.3,8,8.5S52.9,28.3,48.2,28.3z"/>
<rect x="63.4" class="st0" width="2.9" height="30.7"/>
</svg>
