<svg id="Слой_1" data-name="Слой 1" xmlns="http://www.w3.org/2000/svg" viewBox="0 0 325.21 169.09"><defs><style>.cls-1{fill:#ff7d00;}</style></defs><title>contests-shop-2</title><path class="cls-1" d="M194.79,0H215V71.59a10.13,10.13,0,0,1-10.12,10.12c-2.63,0-5-1.34-7.16-3L130.23,29.94V81.76H110V10.17A10.24,10.24,0,0,1,116.23.74c3.78-1.57,7.67-.24,11,2.19l67.53,48.89Zm123,38.21a25.22,25.22,0,0,0-18-7.43H245.64a5.24,5.24,0,1,1,0-10.48h64.11a10.12,10.12,0,0,0,0-20.25H245.64a25.49,25.49,0,0,0-9.92,49,25.34,25.34,0,0,0,9.92,2h54.09v0a5.23,5.23,0,1,1,0,10.47H230.27a10.12,10.12,0,1,0,0,20.25h69.45a25.48,25.48,0,0,0,18-43.5ZM105.16,40.88A40.88,40.88,0,0,1,64.28,81.76H0V0H64.28A40.88,40.88,0,0,1,105.16,40.88Zm-20.34,0A20.53,20.53,0,0,0,64.28,20.34H20.34V61.41H64.28A20.53,20.53,0,0,0,84.81,40.88Z"/><path class="cls-1" d="M17.46,154.89A10.26,10.26,0,0,0,11,153H7.77v-3.46h6.91a2.93,2.93,0,0,0,2.3-1,3,3,0,0,0,.79-2.09A3.2,3.2,0,0,0,17,144.4a3,3,0,0,0-2.33-.94h-10a3.49,3.49,0,0,0-2.4.84,3.2,3.2,0,0,0-1,2.43v19.07a3.26,3.26,0,0,0,1,2.45,3.49,3.49,0,0,0,2.38.86h6.91A8.74,8.74,0,0,0,17.73,167a7.68,7.68,0,0,0,2.39-6A7.39,7.39,0,0,0,17.46,154.89Zm-4,6a2,2,0,0,1-.67,1.64,2.55,2.55,0,0,1-1.78.6H7.77V159h2.85C13.13,159,13.47,160,13.47,160.93Z"/><path class="cls-1" d="M45.1,143.45a3.08,3.08,0,0,0-3.23,3.32v19a3.32,3.32,0,0,0,.93,2.46,3.49,3.49,0,0,0,4.61,0,3.31,3.31,0,0,0,.91-2.44v-19a3.31,3.31,0,0,0-.93-2.46A3.26,3.26,0,0,0,45.1,143.45Z"/><path class="cls-1" d="M37.89,154.78a9.94,9.94,0,0,0-6.45-1.95H28.7v-6a3.35,3.35,0,0,0-.93-2.48,3.47,3.47,0,0,0-4.61,0,3.34,3.34,0,0,0-.91,2.46v19a3.22,3.22,0,0,0,1,2.43,3.51,3.51,0,0,0,2.38.85H32a8.65,8.65,0,0,0,6.12-2.15,7.92,7.92,0,0,0,2.37-6.05A7.46,7.46,0,0,0,37.89,154.78Zm-4,6a2.31,2.31,0,0,1-.7,1.76,2.36,2.36,0,0,1-1.75.63H28.7v-4.51H31a3.28,3.28,0,0,1,2.19.64A1.79,1.79,0,0,1,33.89,160.83Z"/><path class="cls-1" d="M67.5,144.39a2.84,2.84,0,0,0-2.2-.94H53a2.84,2.84,0,0,0-2.2.94,3,3,0,0,0-.79,2.1,3,3,0,0,0,.69,2,2.78,2.78,0,0,0,2.3,1H55.9v16.21a3.36,3.36,0,0,0,.93,2.48,3.47,3.47,0,0,0,4.61,0,3.35,3.35,0,0,0,.91-2.46V149.53H65.3a2.77,2.77,0,0,0,2.29-1,3,3,0,0,0,.7-2A3,3,0,0,0,67.5,144.39Z"/><path class="cls-1" d="M80.32,143.45a11.6,11.6,0,0,0-8.84,3.71,13.86,13.86,0,0,0,0,18.2,12.41,12.41,0,0,0,17.72,0,13,13,0,0,0,3.37-9.1,12.81,12.81,0,0,0-3.44-9A11.5,11.5,0,0,0,80.32,143.45Zm-4.16,8a5.29,5.29,0,0,1,8.32,0,9.06,9.06,0,0,1,0,9.74,5.41,5.41,0,0,1-8.38,0,9.06,9.06,0,0,1,0-9.74Z"/><path class="cls-1" d="M109.72,154.93a5.8,5.8,0,0,0,2.12-4.78,6.3,6.3,0,0,0-2.08-4.88,7,7,0,0,0-4.94-1.82H98.38a3.5,3.5,0,0,0-2.4.84,3.2,3.2,0,0,0-1,2.43v19.07a3.26,3.26,0,0,0,1,2.45,3.5,3.5,0,0,0,2.38.86h6.91a8.74,8.74,0,0,0,6.11-2.08,7.68,7.68,0,0,0,2.39-6,6.31,6.31,0,0,0-1.66-4.32A6.55,6.55,0,0,0,109.72,154.93Zm-2.55,6a2,2,0,0,1-.66,1.64,2.55,2.55,0,0,1-1.78.6h-3.25V159h2.85C106.83,159,107.16,160,107.16,160.93ZM101.47,153v-3.66h1.91a2.23,2.23,0,0,1,1.46.45,1.47,1.47,0,0,1,.54,1.24,1.86,1.86,0,0,1-.51,1.44,2,2,0,0,1-1.5.52Z"/><path class="cls-1" d="M136.76,164.73l-6.57-18a4.31,4.31,0,0,0-4.26-3.23c-2,0-3.43,1.08-4.26,3.21l-6.78,18.14-.11.37a3.2,3.2,0,0,0-.13.89,2.8,2.8,0,0,0,1,2.19,3.31,3.31,0,0,0,2.21.84,3,3,0,0,0,3.09-2.25l.85-2.6h8.29l.85,2.63a3,3,0,0,0,3.13,2.22,3,3,0,0,0,2.09-.79,2.76,2.76,0,0,0,.93-2.11,3.62,3.62,0,0,0-.07-.59A3.52,3.52,0,0,0,136.76,164.73Zm-8.65-6.47h-4.42l2.23-6.75Z"/><path class="cls-1" d="M153.62,143.45h-5.9c-5.93,0-9.06,2.88-9.06,8.33a6.49,6.49,0,0,0,2,4.9,8.26,8.26,0,0,0,3.51,1.9l-4.86,5.22a2.92,2.92,0,0,0-.86,2,3.29,3.29,0,0,0,.9,2.27,3.1,3.1,0,0,0,3.63.77,3.14,3.14,0,0,0,1.19-.87l6.26-7.62v5.41a3.35,3.35,0,0,0,.93,2.48,3.47,3.47,0,0,0,4.61,0,3.35,3.35,0,0,0,.91-2.46V146.8A3,3,0,0,0,153.62,143.45Zm-7.68,6.67a2.55,2.55,0,0,1,1.78-.6h2.74v4.54h-2.74a2.43,2.43,0,0,1-1.76-.62,2.2,2.2,0,0,1-.65-1.67A2.1,2.1,0,0,1,145.94,150.13Z"/><path class="cls-1" d="M184.45,143.45H172.1a2.84,2.84,0,0,0-2.2.94,3,3,0,0,0-.79,2.1,3,3,0,0,0,.69,2,2.78,2.78,0,0,0,2.3,1H175v16.21a3.36,3.36,0,0,0,.93,2.48,3.47,3.47,0,0,0,4.61,0,3.35,3.35,0,0,0,.91-2.46V149.53h2.95a2.78,2.78,0,0,0,2.29-1,3.05,3.05,0,0,0,.7-2,3,3,0,0,0-.79-2.1A2.84,2.84,0,0,0,184.45,143.45Z"/><path class="cls-1" d="M201,163h-5.5v-3.73h4.79a3.08,3.08,0,0,0,2.37-1,3,3,0,0,0,.79-2.08,3,3,0,0,0-.79-2.12,3.1,3.1,0,0,0-2.37-.95h-4.79v-3.52h5.19a2.89,2.89,0,0,0,2.3-1,3,3,0,0,0,.79-2.09,3.2,3.2,0,0,0-.76-2.12,3,3,0,0,0-2.33-.94h-8.32c-2.15,0-3.33,1.31-3.33,3.68v18.69a3.12,3.12,0,0,0,1,2.36,3.28,3.28,0,0,0,2.33.91H201a2.93,2.93,0,0,0,2.3-1,3,3,0,0,0,.79-2.08,3.19,3.19,0,0,0-.76-2.12A3,3,0,0,0,201,163Z"/><path class="cls-1" d="M226.35,163.91,220,155.43l5.11-6.92a3.06,3.06,0,0,0,.69-1.91,2.89,2.89,0,0,0-1-2.29,3.35,3.35,0,0,0-5.05.68l-3.58,5.07L212.65,145a3.35,3.35,0,0,0-5-.7,2.9,2.9,0,0,0-1,2.31,3,3,0,0,0,.67,1.89l5.12,6.94-6.34,8.49a3.7,3.7,0,0,0-.45.89,3.38,3.38,0,0,0-.25,1.23,2.82,2.82,0,0,0,1,2.23,3.26,3.26,0,0,0,2.29.83,3.2,3.2,0,0,0,2.66-1.4l4.92-6.83,4.93,6.83a3.2,3.2,0,0,0,2.65,1.4,3.39,3.39,0,0,0,2.33-.83,2.9,2.9,0,0,0,.93-2.23,4.16,4.16,0,0,0-.21-1.22A3.8,3.8,0,0,0,226.35,163.91Z"/><path class="cls-1" d="M247.72,143.45a3.08,3.08,0,0,0-3.23,3.32v6.38h-9.11v-6.38a3.31,3.31,0,0,0-.93-2.46,3.49,3.49,0,0,0-4.61,0,3.3,3.3,0,0,0-.91,2.44v19a3.32,3.32,0,0,0,.93,2.46,3.49,3.49,0,0,0,4.61,0,3.31,3.31,0,0,0,.91-2.44v-6.58h9.11v6.58a3.32,3.32,0,0,0,.93,2.46,3.49,3.49,0,0,0,4.61,0,3.31,3.31,0,0,0,.91-2.44v-19a3.31,3.31,0,0,0-.93-2.46A3.27,3.27,0,0,0,247.72,143.45Z"/><path class="cls-1" d="M273.26,143.45a3.27,3.27,0,0,0-2.68,1.38l-9.66,12.58V146.77a3.31,3.31,0,0,0-.93-2.46,3.49,3.49,0,0,0-4.61,0,3.31,3.31,0,0,0-.91,2.44v19a3.32,3.32,0,0,0,.93,2.46,3.37,3.37,0,0,0,5-.52L270,155.28v10.5a3.32,3.32,0,0,0,.93,2.46,3.49,3.49,0,0,0,4.61,0,3.31,3.31,0,0,0,.91-2.44v-19a3.31,3.31,0,0,0-.93-2.46A3.27,3.27,0,0,0,273.26,143.45Z"/><path class="cls-1" d="M291.45,155.49l5.85-5.73c1.26-1.26,1.85-2.27,1.85-3.17a3,3,0,0,0-1-2.26,3.12,3.12,0,0,0-3.74-.45,4,4,0,0,0-.91.75l-7,7.45v-5.43a3,3,0,0,0-.93-2.32,3.27,3.27,0,0,0-2.29-.86,3.17,3.17,0,0,0-3.23,3.18V166a2.94,2.94,0,0,0,.93,2.26,3.26,3.26,0,0,0,2.29.86,3.16,3.16,0,0,0,2.31-.91,3,3,0,0,0,.91-2.2v-6.72l7.46,8a4.61,4.61,0,0,0,3.07,1.8,3.56,3.56,0,0,0,2.26-.73,2.81,2.81,0,0,0,1.07-2.29,4.67,4.67,0,0,0-1.61-3Z"/><path class="cls-1" d="M323.81,165.6a3.58,3.58,0,0,0-.24-.87l-6.57-18a4.31,4.31,0,0,0-4.26-3.23c-2,0-3.43,1.08-4.26,3.21l-6.78,18.14-.11.37a3.2,3.2,0,0,0-.13.89,2.8,2.8,0,0,0,1,2.19,3.32,3.32,0,0,0,2.21.84,3,3,0,0,0,3.09-2.25l.85-2.6h8.29l.85,2.63a3,3,0,0,0,3.13,2.22,3,3,0,0,0,2.09-.79,2.76,2.76,0,0,0,.93-2.11A3.64,3.64,0,0,0,323.81,165.6Zm-8.89-7.34H310.5l2.23-6.75Z"/><path class="cls-1" d="M98.44,109.48a3.31,3.31,0,0,0-.93-2.46,3.37,3.37,0,0,0-5,.52l-9.66,12.58V109.48a3.31,3.31,0,0,0-.93-2.46,3.49,3.49,0,0,0-4.61,0,3.3,3.3,0,0,0-.91,2.44v19a3.31,3.31,0,0,0,.93,2.46,3.37,3.37,0,0,0,5-.52L92,118v10.49a3.31,3.31,0,0,0,.93,2.46,3.49,3.49,0,0,0,4.61,0,3.31,3.31,0,0,0,.91-2.44Z"/><path class="cls-1" d="M109.87,128.86a10.39,10.39,0,0,0,1.27-.11l.41-.06a3.22,3.22,0,0,0,6.44,0l.41.06a10.39,10.39,0,0,0,1.27.11,8.64,8.64,0,0,0,6.7-3,10.08,10.08,0,0,0,2.6-7,10.24,10.24,0,0,0-2.56-7,8.68,8.68,0,0,0-6.74-3,10.67,10.67,0,0,0-1.26.1l-.44,0a3.16,3.16,0,0,0-.91-2,3.49,3.49,0,0,0-4.61,0,3.15,3.15,0,0,0-.89,2l-.4,0a11.19,11.19,0,0,0-1.3-.11,8.68,8.68,0,0,0-6.74,3,10.24,10.24,0,0,0-2.56,7,10,10,0,0,0,2.63,7A8.61,8.61,0,0,0,109.87,128.86Zm-2.64-10a3.87,3.87,0,0,1,1.16-2.87,3.77,3.77,0,0,1,2.73-1.11,4.76,4.76,0,0,1,.55.05l0,7.77a2.49,2.49,0,0,1-.56.09,3.77,3.77,0,0,1-2.73-1.07A3.82,3.82,0,0,1,107.22,118.89Zm10.63,3.85V115h0a4.2,4.2,0,0,1,.54-.06,3.77,3.77,0,0,1,2.72,1.1,3.87,3.87,0,0,1,1.17,2.88,3.82,3.82,0,0,1-1.16,2.87,3.76,3.76,0,0,1-2.73,1.07,1.77,1.77,0,0,1-.52-.08Z"/><path class="cls-1" d="M149.69,114.94a8.3,8.3,0,0,0-2.68-6.36,9.43,9.43,0,0,0-6.62-2.41h-5.94a3,3,0,0,0-3.33,3.34v18.95a3.36,3.36,0,0,0,.93,2.48,3.47,3.47,0,0,0,4.61,0,3.35,3.35,0,0,0,.91-2.46v-4.82h3A9,9,0,0,0,147,121.3,8.21,8.21,0,0,0,149.69,114.94Zm-6.65,0a2.74,2.74,0,0,1-.76,2.05,2.52,2.52,0,0,1-2,.81h-2.71V112h2.71a2.6,2.6,0,0,1,2,.79A2.84,2.84,0,0,1,143,114.91Z"/><path class="cls-1" d="M163.18,131.8a11.64,11.64,0,0,0,8.88-3.72,13,13,0,0,0,3.37-9.1,12.81,12.81,0,0,0-3.44-9,12.26,12.26,0,0,0-17.65-.07,13.86,13.86,0,0,0,0,18.2A11.61,11.61,0,0,0,163.18,131.8ZM159,114.13a5.29,5.29,0,0,1,8.32,0,9.06,9.06,0,0,1,0,9.74,5.41,5.41,0,0,1-8.39,0,9.06,9.06,0,0,1,0-9.74Z"/><path class="cls-1" d="M181.27,131.8h6.91a8.74,8.74,0,0,0,6.11-2.08,7.68,7.68,0,0,0,2.39-6,6.31,6.31,0,0,0-1.66-4.32,6.56,6.56,0,0,0-2.44-1.74,5.8,5.8,0,0,0,2.12-4.78,6.3,6.3,0,0,0-2.08-4.88,7,7,0,0,0-4.94-1.82h-6.44a3.49,3.49,0,0,0-2.4.84,3.2,3.2,0,0,0-1,2.43V128.5a3.26,3.26,0,0,0,1,2.45A3.49,3.49,0,0,0,181.27,131.8Zm3.06-5.92v-4.2h2.85c2.51,0,2.85,1,2.85,2a2,2,0,0,1-.67,1.64,2.54,2.54,0,0,1-1.78.6Zm0-10.13v-3.66h1.91a2.23,2.23,0,0,1,1.46.45,1.47,1.47,0,0,1,.54,1.24,1.86,1.86,0,0,1-.51,1.45,2,2,0,0,1-1.49.52Z"/><path class="cls-1" d="M219.93,128.91a3.65,3.65,0,0,0-.07-.59,3.59,3.59,0,0,0-.24-.87l-6.57-18a4.31,4.31,0,0,0-4.26-3.23c-2,0-3.43,1.08-4.26,3.21l-6.78,18.14-.11.37a3.21,3.21,0,0,0-.13.89,2.8,2.8,0,0,0,1,2.19,3.31,3.31,0,0,0,2.21.84,3,3,0,0,0,3.09-2.25l.85-2.6h8.29l.85,2.63a3,3,0,0,0,3.13,2.22A3,3,0,0,0,219,131,2.76,2.76,0,0,0,219.93,128.91ZM211,121h-4.42l2.23-6.75Z"/><path class="cls-1" d="M239.77,128.45V109.51a3,3,0,0,0-3.29-3.34h-5.9c-5.93,0-9.06,2.88-9.06,8.33a6.49,6.49,0,0,0,2,4.9,8.25,8.25,0,0,0,3.51,1.9l-4.86,5.22a2.92,2.92,0,0,0-.86,2,3.29,3.29,0,0,0,.9,2.27,3.1,3.1,0,0,0,3.63.77,3.13,3.13,0,0,0,1.19-.87l6.26-7.62v5.41a3.35,3.35,0,0,0,.93,2.48,3.47,3.47,0,0,0,4.61,0A3.35,3.35,0,0,0,239.77,128.45Zm-11-15.61a2.55,2.55,0,0,1,1.78-.6h2.74v4.54h-2.74a2.44,2.44,0,0,1-1.76-.62,2.2,2.2,0,0,1-.65-1.67A2.1,2.1,0,0,1,228.79,112.84Z"/><path class="cls-1" d="M272.67,106.17a3.27,3.27,0,0,0-2.68,1.38l-9.66,12.58V109.48a3.31,3.31,0,0,0-.93-2.46,3.49,3.49,0,0,0-4.61,0,3.31,3.31,0,0,0-.91,2.44v19a3.32,3.32,0,0,0,.93,2.46,3.37,3.37,0,0,0,5-.52L269.45,118v10.49a3.32,3.32,0,0,0,.93,2.46,3.49,3.49,0,0,0,4.61,0,3.31,3.31,0,0,0,.91-2.44v-19A3.31,3.31,0,0,0,275,107,3.27,3.27,0,0,0,272.67,106.17Z"/><path class="cls-1" d="M73.77,135.29a3.35,3.35,0,0,0,.91-2.46v-3.56a3.35,3.35,0,0,0-.95-2.46,3.13,3.13,0,0,0-2.28-.88h-.13V109.51A3.36,3.36,0,0,0,70.4,107a3.47,3.47,0,0,0-4.61,0,3.35,3.35,0,0,0-.91,2.46v16.42H55.76V109.51a3.36,3.36,0,0,0-.93-2.48,3.47,3.47,0,0,0-4.61,0,3.35,3.35,0,0,0-.91,2.46v18.95a3.36,3.36,0,0,0,.95,2.46,3.13,3.13,0,0,0,2.28.88h15.7v1a3.36,3.36,0,0,0,.93,2.48,3.47,3.47,0,0,0,4.61,0Z"/></svg>