<svg id="Слой_1" data-name="Слой 1" xmlns="http://www.w3.org/2000/svg" xmlns:xlink="http://www.w3.org/1999/xlink" viewBox="0 0 521.1 277.59"><defs><style>.cls-1{fill:none;}.cls-2{clip-path:url(#clip-path);}.cls-3{fill:#d5652b;}.cls-4{fill:#262424;}</style><clipPath id="clip-path" transform="translate(0 0)"><rect class="cls-1" width="521.09" height="277.59"/></clipPath></defs><title>contests-shop-3</title><g class="cls-2"><path class="cls-3" d="M186.93,172.53H141.22a6,6,0,0,0-6,6,5.69,5.69,0,0,0,6,5.64h17.1v34a6.08,6.08,0,0,0,12.15,0v-34h16.45a5.83,5.83,0,0,0,6-5.64,6.05,6.05,0,0,0-6-6" transform="translate(0 0)"/><path class="cls-3" d="M123.76,172.53a6.39,6.39,0,0,0-3.92,1.28L82.23,205.73V178.6a6,6,0,0,0-6-6.07,6.16,6.16,0,0,0-6.09,6.07v39.52a6.11,6.11,0,0,0,6.09,6,6.44,6.44,0,0,0,4.18-1.67l37.29-31.64v27.34a6,6,0,0,0,6,6,6.07,6.07,0,0,0,6-6V178.6a6.12,6.12,0,0,0-6-6.07" transform="translate(0 0)"/><path class="cls-3" d="M50,172.53H13.64a13.1,13.1,0,0,0-13,12.9v25.83c0,7.56,5.33,12.85,13,12.85H50a12.19,12.19,0,0,0,12.63-12.58v-3.47a5.95,5.95,0,1,0-11.89,0v3.3c0,.49-.34,1.07-.75,1.07H13.64a1.05,1.05,0,0,1-.9-1.07v-26c0-.61.51-1.18.9-1.18H50c.31,0,.75.6.75,1.18v3.19a5.94,5.94,0,1,0,11.89,0v-3.35A12.22,12.22,0,0,0,50,172.53" transform="translate(0 0)"/><path class="cls-3" d="M469.52,172.53a6.16,6.16,0,0,0-6.08,6.07v39.52a6,6,0,0,0,12.05,0V178.6a6.1,6.1,0,0,0-6-6.07" transform="translate(0 0)"/><path class="cls-3" d="M380.11,172.53a6.47,6.47,0,0,0-3.91,1.28l-37.61,31.92V178.6a6,6,0,0,0-6.07-6.07,6.1,6.1,0,0,0-6,6.07v39.52a6,6,0,0,0,6,6,6.58,6.58,0,0,0,4.29-1.67L374,190.79v27.34a6,6,0,0,0,6.08,6,6.19,6.19,0,0,0,6.08-6V178.6a6.24,6.24,0,0,0-6.08-6.07" transform="translate(0 0)"/><path class="cls-3" d="M448.14,172.53a6.16,6.16,0,0,0-6.08,6.07v14.12h-34.8V178.6a6.23,6.23,0,0,0-6.07-6.07,6.16,6.16,0,0,0-6.08,6.07v39.52a6.11,6.11,0,0,0,6.08,6,6.18,6.18,0,0,0,6.07-6V204.28h34.8v13.84a6.11,6.11,0,0,0,6.08,6,6,6,0,0,0,6-6V178.6a6.1,6.1,0,0,0-6-6.07" transform="translate(0 0)"/><path class="cls-3" d="M518.4,213.43l-23.26-15.07,23.18-15.07a5.81,5.81,0,0,0,2.78-5.13,5.55,5.55,0,0,0-5.58-5.63,7.29,7.29,0,0,0-3.54,1l-30.65,19.82a5.85,5.85,0,0,0-2.6,5,5.78,5.78,0,0,0,2.59,5L512,223.18a6.75,6.75,0,0,0,3.38,1,5.65,5.65,0,0,0,5.7-5.59,5.93,5.93,0,0,0-2.7-5.13" transform="translate(0 0)"/><path class="cls-3" d="M297.89,175.67a5.83,5.83,0,0,0-5.38-3.14,6.14,6.14,0,0,0-5.21,3l-23.77,39.7a5.36,5.36,0,0,0-1,3.2,5.72,5.72,0,0,0,5.59,5.7,6.41,6.41,0,0,0,5.37-2.91l19-31.6,18.9,31.57a6.35,6.35,0,0,0,5.26,2.94,5.79,5.79,0,0,0,5.8-5.91,6.29,6.29,0,0,0-.82-3.12Z" transform="translate(0 0)"/><path class="cls-3" d="M251.32,172.53a6.32,6.32,0,0,0-3.87,1.28l-37.61,31.92V178.6a6,6,0,1,0-12.05,0v39.52a6.05,6.05,0,0,0,6,6,6.48,6.48,0,0,0,4.3-1.67l37.28-31.64v27.34a6,6,0,0,0,12.06,0V178.6a6.09,6.09,0,0,0-6.08-6.07" transform="translate(0 0)"/><path class="cls-3" d="M315.29,0H206.44c-14.46,0-19.6,10.48-19.6,19.46V79.28c0,9,5.14,19.46,19.6,19.46h20.3l-8.59-11.62H206.53c-4.81,0-7.58-2.76-7.58-7.58V19.2c0-4.81,2.77-7.58,7.58-7.58H315.25c4.82,0,7.58,2.76,7.58,7.58V33.69a6.06,6.06,0,0,0,12.12,0V19.46c0-9-5.15-19.46-19.65-19.46" transform="translate(0 0)"/><path class="cls-3" d="M328.86,59a6,6,0,0,0-6,6V79.55c0,4.82-2.76,7.58-7.58,7.58H295.44l-.28,11.62h20.13c14.5,0,19.65-10.48,19.65-19.46V65.06a6,6,0,0,0-6.08-6" transform="translate(0 0)"/><path class="cls-3" d="M301.12,68.89a13.33,13.33,0,0,0-12.5-3.54,14.14,14.14,0,0,0-1.69-2.07,13.54,13.54,0,0,0-9.53-3.87,13,13,0,0,0-4.08.64c-.2-.23-.4-.44-.6-.64a13.39,13.39,0,0,0-9.39-3.9c-.3,0-.61,0-.92,0l0-16.87a13.33,13.33,0,0,0-26.65,0l0,37.9c-4.19-3.55-9.55-5-14.21-3.73a13.87,13.87,0,0,0-10.08,12.33A16.13,16.13,0,0,0,214,94.82l-.07.07,1.67,2.21,2.05,2.66,28.69,37.44a25.51,25.51,0,0,0,6.73,6.65c3.37,2,6.85,2.24,10.11,2.24h19.44a15.82,15.82,0,0,0,8-1.87,14.59,14.59,0,0,0,6.52-8.14q2-5.47,3.92-10.92l.51-1.43a55.64,55.64,0,0,0,2.57-9.52A64,64,0,0,0,305,103V78.31a13.26,13.26,0,0,0-3.92-9.42M294.43,103a57.46,57.46,0,0,1-.77,9.4,49.07,49.07,0,0,1-2.06,7.73l-4.34,12c-.54,1.52-.9,2.3-1.88,2.87a5.83,5.83,0,0,1-2.75.49H263.19a10,10,0,0,1-4.71-.78,15.43,15.43,0,0,1-3.46-3.63L223.71,90.18c-1.2-1.55-1.69-2.45-1.62-4a3.4,3.4,0,0,1,1-2.35,2.91,2.91,0,0,1,2-.81,6.51,6.51,0,0,1,4,1.83l9.67,8.92A4.66,4.66,0,0,0,242,95.1a4.42,4.42,0,0,0,4.41-4.42l0-52A2.56,2.56,0,0,1,249.13,36a2.51,2.51,0,0,1,2.71,2.63l0,39.58a4.42,4.42,0,1,0,8.84,0V68.86a2.8,2.8,0,0,1,.81-1.94A2.72,2.72,0,0,1,266,68.86l0,9.37a4.5,4.5,0,0,0,4.42,4.42,4.43,4.43,0,0,0,4.42-4.41l0-5.93a2.32,2.32,0,0,1,.75-1.54,2.88,2.88,0,0,1,3.83,0,2.67,2.67,0,0,1,.77,1.93v8.13a4.39,4.39,0,0,0,8.79.07l.05-2.59a2.64,2.64,0,0,1,.76-1.89,2.72,2.72,0,0,1,4.62,1.89Z" transform="translate(0 0)"/><path class="cls-4" d="M16.31,268.37c0,5.78-6.44,5.78-6.44,5.78H6.48C3.64,274.15,0,273,0,269c0-1.49.66-2.11,1.92-2.11H3.2v1.43c0,1.27.73,3,3.28,3H9.87a3,3,0,0,0,3.23-3v-4.78H4.85v-2.89H13.1v-4.75a3,3,0,0,0-3.23-3H6.44c-2,0-3.09,1.15-3.09,2.77v2H2a1.82,1.82,0,0,1-1.81-2c0-4.51,3.75-5.6,6.45-5.6H9.87s6.44,0,6.44,6Z" transform="translate(0 0)"/><path class="cls-4" d="M39.78,251.51v21A1.53,1.53,0,0,1,38.19,274H36.56V253H34.14c-1.36,0-1.78.74-2.14,1.92l-3.83,12.42a9.7,9.7,0,0,0-.34,2.22V274H26.11a1.43,1.43,0,0,1-1.52-1.64V268.3l4.67-14.68c.7-2.16,1.78-3.54,5-3.54h3.94a1.45,1.45,0,0,1,1.59,1.43" transform="translate(0 0)"/><path class="cls-4" d="M53.29,271.18H64.55v1.37A1.5,1.5,0,0,1,63,274H51.69s-1.61,0-1.61-1.5v-20c0-1.85.92-2.43,2.76-2.43H63a1.49,1.49,0,0,1,1.58,1.48V253H53.29v7.46H63v2.87H53.29Z" transform="translate(0 0)"/><path class="cls-4" d="M76.59,274H75s-1.64,0-1.64-1.5V252.1a1.82,1.82,0,0,1,1.92-2h1.3v10.48h3.13c1.3-1.77,4.25-6.89,4.27-6.89v-1.6c0-1.73.92-2,1.85-2h1.37v3a3.81,3.81,0,0,1-.62,2.4l-3.92,6,1.68,1a6.27,6.27,0,0,1,3.47,5.62V274H86.24s-1.61,0-1.61-1.5v-3.63a4.34,4.34,0,0,0-2.55-4.38l-1.94-1.1H76.59Z" transform="translate(0 0)"/><path class="cls-4" d="M111.58,252.89h-7.38V274H101V252.89H93.32v-1.33a1.49,1.49,0,0,1,1.58-1.48H110a1.49,1.49,0,0,1,1.59,1.48Z" transform="translate(0 0)"/><path class="cls-4" d="M121.22,274h-1.61a1.48,1.48,0,0,1-1.58-1.48V252.72c0-2.3,1.63-2.64,2.79-2.64h5.06c5.2,0,6.26,2.67,6.26,5.48v3.27c0,4.65-3.68,6.12-6.89,6.12h-4Zm3.79-12c2.77,0,3.92-1.44,3.92-3.56v-2.12c0-2.65-1.45-3.42-3.32-3.42h-4.38v9.1Z" transform="translate(0 0)"/><path class="cls-4" d="M155.22,256V268.2c0,6-6.23,6-6.23,6h-3.64c-2,0-6.05-1.13-6.05-6.6V256c0-6.13,6.49-6.13,6.49-6.13H149s6.23,0,6.23,6.13m-3.21-.21a3.06,3.06,0,0,0-3.27-3h-2.66c-3.57,0-3.57,3-3.57,3v11.77c0,1.06.4,3.73,3.28,3.73H149c3,0,3-3.14,3-3.14Z" transform="translate(0 0)"/><path class="cls-4" d="M180,250.08s1.59,0,1.59,1.48v21C181.59,274,180,274,180,274h-1.61V263.29h-9.65V274h-1.63s-1.59,0-1.59-1.48v-21c0-1.48,1.59-1.48,1.59-1.48h1.63v10.35h9.65V250.08Z" transform="translate(0 0)"/><path class="cls-4" d="M206.36,250.08s1.58,0,1.58,1.48v21c0,1.48-1.58,1.48-1.58,1.48h-1.61V263.29H195.1V274h-1.63s-1.59,0-1.59-1.48v-21c0-1.48,1.59-1.48,1.59-1.48h1.63v10.35h9.65V250.08Z" transform="translate(0 0)"/><path class="cls-4" d="M232.67,268.26c0,5.78-6.54,5.78-6.54,5.78h-6.26a1.51,1.51,0,0,1-1.61-1.5V252c0-1.61,1.17-1.9,2.08-1.9h1.2v10.61H226c6.67,0,6.67,5.69,6.67,5.69v1.91Zm-3.24-1.65c0-3-3.29-3-3.29-3h-4.59v7.6h4.59a3.08,3.08,0,0,0,3.29-3.06Zm5.74,7.44v-24h1.25c1.43,0,2,.72,2,1.88v20.3c0,1-.55,1.82-2,1.82Z" transform="translate(0 0)"/><path class="cls-4" d="M263.4,249.95c-1.06,0-1.35.23-1.75,1l-10.11,17.54a52.72,52.72,0,0,0,.41-6.84V250h-1.32c-1.78,0-1.89,1.23-1.89,2.18v20.65a1.37,1.37,0,0,0,1.43,1.3,1.64,1.64,0,0,0,1.52-.75L262,255.84a63.37,63.37,0,0,0-.36,6.92V274H263c1.36,0,1.88-1,1.88-2.43v-20.4a1.27,1.27,0,0,0-1.45-1.27" transform="translate(0 0)"/><path class="cls-4" d="M260.05,248.58a1.44,1.44,0,0,0,1.6-1.61v-1.38l-3.81.21h-2.73c-1.28,0-1.61.69-1.61,1.49v1.45l4.08-.16Z" transform="translate(0 0)"/><path class="cls-4" d="M302.77,271.38c1.08,0,2.14.51,2.14,1.81v2.74c0,1.42-.66,1.65-1.55,1.65h-1.56V274H287.39v3.54h-1.56c-.88,0-1.59-.23-1.59-1.65V273.5c0-1.51.7-2.12,2.32-2.12h1.18v-4.15l3.43-13.06c.69-2.58,1.94-4.09,5.67-4.09H300a1.7,1.7,0,0,1,1.7,1.48v19.82Zm-4.27,0V252.79h-2.36a2.17,2.17,0,0,0-2,1.81l-2.94,11.78a6.66,6.66,0,0,0-.17,1.79v3.22Z" transform="translate(0 0)"/><path class="cls-4" d="M328.58,271.62c0,1.43-.51,2.43-1.87,2.43h-1.32V262.76a66.81,66.81,0,0,1,.36-6.92L315.43,273.4a1.62,1.62,0,0,1-1.5.75,1.37,1.37,0,0,1-1.45-1.3V252.2c0-1,.13-2.18,1.89-2.18h1.32V261.6a52.35,52.35,0,0,1-.41,6.84l10.11-17.54c.4-.72.7-1,1.76-1a1.27,1.27,0,0,1,1.43,1.27Z" transform="translate(0 0)"/><path class="cls-4" d="M349,250c2.14,0,5.24,1.06,5.24,4.53v.88c0,1.4-.66,1.68-1.74,1.68h-1.43v-1.44c0-1.92-.4-2.77-3-2.77h-2.7a3,3,0,0,0-3.27,3v11.71c0,1.33,0,3.67,3.27,3.67h2.92c1.95,0,2.94-1,2.94-2.34v-2.39h1.48a1.51,1.51,0,0,1,1.65,1.72v1.25c0,2.36-2.12,4.63-5.67,4.63h-4c-1.17,0-5.82-.08-5.82-6.09V256c0-6,6-6,6-6Z" transform="translate(0 0)"/><path class="cls-4" d="M366.74,274h-1.59s-1.63,0-1.63-1.5V252.1a1.81,1.81,0,0,1,1.92-2h1.3v10.48h3.12c1.31-1.77,4.25-6.89,4.29-6.89v-1.6c0-1.73.92-2,1.85-2h1.35v3a3.72,3.72,0,0,1-.62,2.4l-3.9,6,1.7,1A6.31,6.31,0,0,1,378,268.1V274h-1.59s-1.61,0-1.61-1.5v-3.63a4.34,4.34,0,0,0-2.55-4.38l-1.94-1.1h-3.54Z" transform="translate(0 0)"/><path class="cls-4" d="M402.1,272.55a1.52,1.52,0,0,1-1.64,1.5h-1.57v-4.18l-.59-1.77h-8.55l-.51,1.77V274h-1.59a1.51,1.51,0,0,1-1.61-1.5V269l6.4-18a1.6,1.6,0,0,1,1.65-1.21,1.55,1.55,0,0,1,1.58,1.21l6.42,18Zm-4.66-7.29-3.38-10.38-3.43,10.38Z" transform="translate(0 0)"/><path class="cls-4" d="M416.9,272.55c-.48,1-.92,1.5-1.81,1.5h-2c-1.63-.07-2.18-.54-2.18-1.5v-1.48h3.41l1.06-2.56L408.79,252a1.5,1.5,0,0,1,1.1-1.9h1.7l5.71,15.1.92-3.63,4.61-11.48h1.39A1.56,1.56,0,0,1,425.4,252Z" transform="translate(0 0)"/><path class="cls-4" d="M448.5,250.08s1.59,0,1.59,1.48v21c0,1.48-1.59,1.48-1.59,1.48h-1.63V263.29h-9.65V274h-1.63s-1.57,0-1.57-1.48v-21c0-1.48,1.57-1.48,1.57-1.48h1.63v10.35h9.65V250.08Z" transform="translate(0 0)"/><path class="cls-4" d="M474.78,252.89h-7.35V274h-3.21V252.89h-7.71v-1.33a1.49,1.49,0,0,1,1.59-1.48h15.11a1.48,1.48,0,0,1,1.57,1.48Z" transform="translate(0 0)"/><path class="cls-4" d="M485.16,271.18h11.28v1.37a1.5,1.5,0,0,1-1.59,1.5H483.57s-1.61,0-1.61-1.5v-20c0-1.85.92-2.43,2.76-2.43h10.13a1.49,1.49,0,0,1,1.59,1.48V253H485.16v7.46h9.69v2.87h-9.69Z" transform="translate(0 0)"/><path class="cls-4" d="M509.21,274h-1.61a1.48,1.48,0,0,1-1.59-1.48V252.72c0-2.3,1.63-2.64,2.8-2.64h5c5.2,0,6.26,2.67,6.26,5.48v3.27c0,4.65-3.68,6.12-6.89,6.12h-4Zm3.79-12c2.77,0,3.92-1.44,3.92-3.56v-2.12c0-2.65-1.45-3.42-3.32-3.42h-4.39v9.1Z" transform="translate(0 0)"/></g></svg>