<svg id="Слой_1" data-name="Слой 1" xmlns="http://www.w3.org/2000/svg" xmlns:xlink="http://www.w3.org/1999/xlink" viewBox="0 0 702.99 606.5"><defs><style>.cls-1{fill:none;}.cls-2{fill:#ff0036;}.cls-3{clip-path:url(#clip-path);}</style><clipPath id="clip-path" transform="translate(0 0)"><rect class="cls-1" width="702.99" height="606.5"/></clipPath></defs><title>contests-shop-1</title><polygon class="cls-2" points="683.68 479.78 686.62 479.78 686.62 488.37 688.25 488.37 688.25 479.78 691.18 479.78 691.18 478.38 683.68 478.38 683.68 479.78"/><g class="cls-3"><path class="cls-2" d="M700.68,478.38l-2.85,7.94h0L695,478.38h-2.3v10h1.48v-4.85q0-1.63-.12-3.48h.05l2.9,8.34h1.44l3-8.32h.06c0,.17,0,.65-.07,1.45s0,1.44,0,1.94v4.94H703v-10Z" transform="translate(0 0)"/><polygon class="cls-2" points="184.28 188.35 62.24 188.35 62.24 208.98 112.95 208.98 112.95 309.1 133.57 309.1 133.57 208.98 184.28 208.98 184.28 188.35"/><path class="cls-2" d="M534.58,309.1H513.82a36.4,36.4,0,0,1-36.36-36.36V188.17h20.62v84.56a15.75,15.75,0,0,0,15.74,15.74h20.76Z" transform="translate(0 0)"/><path class="cls-2" d="M621.27,309.1h-40.7a36.4,36.4,0,0,1-36.36-36.36V188.17h20.62v84.56a15.75,15.75,0,0,0,15.74,15.74h40.7Z" transform="translate(0 0)"/><path class="cls-2" d="M320.09,309.1H299.47V217.63l-9.35,7.59a50.35,50.35,0,0,1-63.15,0l-9.35-7.59V309.1H197V200.9a12.64,12.64,0,0,1,20.62-9.81L240,209.2a29.63,29.63,0,0,0,37.17,0l22.35-18.13a12.65,12.65,0,0,1,20.61,9.82Zm-115.47-102h0Zm107.86,0h0Z" transform="translate(0 0)"/><path class="cls-2" d="M445.57,309.1H468L421.38,201.42a23.05,23.05,0,0,0-42.31,0L332.41,309.1h22.48l17-39.34h56.59Zm-64.7-60L398,209.62a2.43,2.43,0,0,1,4.46,0l17.13,39.52Z" transform="translate(0 0)"/><path class="cls-2" d="M617.74,21a44.83,44.83,0,0,1,44.79,45.29V314A63.64,63.64,0,0,1,599,377.55H84.56A63.64,63.64,0,0,1,21,314V66.27a44.82,44.82,0,0,1,79-29.51L152.7,99.38a101.75,101.75,0,0,0,78,36.28H452.83a101.75,101.75,0,0,0,78-36.28l52.75-62.62A44.79,44.79,0,0,1,617.74,21m0-21a65.68,65.68,0,0,0-50.19,23.2L514.77,85.86a81,81,0,0,1-61.94,28.81H230.69a81,81,0,0,1-61.94-28.81L116,23.2A65.81,65.81,0,0,0,0,66.47V314a84.55,84.55,0,0,0,84.55,84.55H599A84.55,84.55,0,0,0,683.51,314V66.47A65.82,65.82,0,0,0,617.74,0" transform="translate(0 0)"/><path class="cls-2" d="M525.72,487.3a37.71,37.71,0,0,0-14.26-2.88h-.2a41.92,41.92,0,0,0-15.89,3.25,41.15,41.15,0,0,0-25.13,37.81v0h0a.09.09,0,0,1,0,0v.12a42,42,0,0,0,41.65,41.79h.47a41.33,41.33,0,0,0,31.12-14.66l-10.37-8.29a28.48,28.48,0,0,1-9.08,7,26.89,26.89,0,0,1-11.93,2.83h0a28,28,0,0,1-9.4-1.64,28.73,28.73,0,0,1-18.11-19.51l-.14-.51,63.77-.09.06-11.4a36.89,36.89,0,0,0-22.54-33.94M484.2,519.61l.12-.51a27.41,27.41,0,0,1,26.63-21,23.41,23.41,0,0,1,23.31,21l0,.46Z" transform="translate(0 0)"/><rect class="cls-2" x="106.36" y="456.44" width="13.98" height="109.29" transform="translate(-0.77 0.17) rotate(-0.09)"/><path class="cls-2" d="M374.18,484.6a41.56,41.56,0,0,0-41.54,41.2l.12,80.7,14,0-.08-51.63A41.56,41.56,0,0,0,374,567.72h.28a41.55,41.55,0,0,0,3.18-83l-.86-.06c-.81,0-1.62-.07-2.43-.07m27.44,42.69a27.35,27.35,0,1,1-54.71.08c0-.36,0-.72,0-1.07s0-.71,0-1.07a27.35,27.35,0,1,1,54.71-.08q0,.54,0,1.07c0,.36,0,.71,0,1.07" transform="translate(0 0)"/><polygon class="cls-2" points="188.32 551.33 188.28 517.39 233.15 517.33 233.13 503.76 188.26 503.83 188.21 470.61 238.72 470.54 238.7 456.25 173.91 456.35 174.06 565.64 242.79 565.54 242.77 551.25 188.32 551.33"/><path class="cls-2" d="M56.2,456.45l-14.4,0L0,565.89l13.7,0,10-26.26,50.77-.07,10.12,26.24,13.7,0Zm-27,68.77L49,473.36,69,525.16Z" transform="translate(0 0)"/><polygon class="cls-2" points="326.42 486.93 309.87 486.95 287.74 515.75 265.53 487.02 248.98 487.04 279.29 526.24 249.1 565.53 265.65 565.5 287.77 536.71 309.99 565.44 326.54 565.42 296.23 526.22 326.42 486.93"/><path class="cls-2" d="M607.9,525.74a28.83,28.83,0,0,0-8.29-4.29,76.26,76.26,0,0,0-10-2.6q-3.89-.67-7.52-1.68a38.45,38.45,0,0,1-6.42-2.35,14.13,14.13,0,0,1-4.4-3.12,6.19,6.19,0,0,1-1.61-4.3,8.34,8.34,0,0,1,1.43-4.81,11.87,11.87,0,0,1,3.63-3.46,17.18,17.18,0,0,1,5-2,23.33,23.33,0,0,1,5.49-.68l1,0a21.14,21.14,0,0,1,16.54,8.92l10.43-7.05a32.84,32.84,0,0,0-27-14,38.84,38.84,0,0,0-11,1.53,33.05,33.05,0,0,0-9.45,4.4,21.9,21.9,0,0,0-6.74,7.27,19.9,19.9,0,0,0-2.52,10.13,19.45,19.45,0,0,0,2.29,10,18.67,18.67,0,0,0,6.09,6.32,34.6,34.6,0,0,0,8.87,4q5.06,1.51,10.64,2.68,3.21.67,6.25,1.51a21.5,21.5,0,0,1,5.41,2.27,12.58,12.58,0,0,1,3.81,3.46,8.86,8.86,0,0,1,1.44,5.23,9.67,9.67,0,0,1-1.51,5.49,12.46,12.46,0,0,1-4,3.81,18.42,18.42,0,0,1-5.64,2.2,29.15,29.15,0,0,1-5.66.68A25.31,25.31,0,0,1,564,544.91l-10.56,8.24a41,41,0,0,0,31,14.19,52,52,0,0,0,11.1-1.4,31.61,31.61,0,0,0,10.14-4.32,22.42,22.42,0,0,0,7.17-7.69,22.8,22.8,0,0,0,2.69-11.49,22.11,22.11,0,0,0-2-10,19.13,19.13,0,0,0-5.58-6.74" transform="translate(0 0)"/><path class="cls-2" d="M681.48,532.38a19.12,19.12,0,0,0-5.59-6.74,28.78,28.78,0,0,0-8.29-4.29,75.63,75.63,0,0,0-10-2.6q-3.89-.67-7.52-1.68a38.45,38.45,0,0,1-6.42-2.35,14.15,14.15,0,0,1-4.4-3.12,6.19,6.19,0,0,1-1.61-4.3,8.34,8.34,0,0,1,1.43-4.81,11.86,11.86,0,0,1,3.63-3.47,17.15,17.15,0,0,1,5-2,23.29,23.29,0,0,1,5.49-.68l1,0a21.14,21.14,0,0,1,16.54,8.92v0l10.42-7,0,0,0,0a32.94,32.94,0,0,0-27-13.93H654a38.59,38.59,0,0,0-10.8,1.54,33,33,0,0,0-9.44,4.4,21.88,21.88,0,0,0-6.74,7.27,19.91,19.91,0,0,0-2.52,10.13,19.45,19.45,0,0,0,2.29,10,18.66,18.66,0,0,0,6.09,6.32,34.57,34.57,0,0,0,8.87,4q5.07,1.51,10.64,2.69,3.21.67,6.25,1.51a21.44,21.44,0,0,1,5.4,2.27,12.57,12.57,0,0,1,3.81,3.46,8.85,8.85,0,0,1,1.44,5.23,9.67,9.67,0,0,1-1.51,5.49,12.46,12.46,0,0,1-4,3.81,18.45,18.45,0,0,1-5.64,2.2,29,29,0,0,1-5.66.68v0h-.14v0h0a25.21,25.21,0,0,1-20.39-10.28L621.38,553a41,41,0,0,0,31,14.19v0a49.53,49.53,0,0,0,11.1-1.36,31.64,31.64,0,0,0,10.13-4.32,22.37,22.37,0,0,0,7.17-7.69,22.78,22.78,0,0,0,2.69-11.48,22.12,22.12,0,0,0-2-10" transform="translate(0 0)"/><path class="cls-2" d="M439.89,486.57l-14,0L426,524c0,.6,0,1.22,0,1.82,0,0,.08,39.42.08,39.42l14,0-.06-39.38a27.58,27.58,0,0,1,27.46-27.63l0-14a41.64,41.64,0,0,0-27.48,10.47Z" transform="translate(0 0)"/><rect class="cls-2" x="140.08" y="487.65" width="13.98" height="78.03" transform="translate(-0.75 0.21) rotate(-0.08)"/><path class="cls-2" d="M146.95,441.32a.61.61,0,0,0-.61.61,20.4,20.4,0,0,1-20.28,20.47.61.61,0,0,0,0,1.22A20.4,20.4,0,0,1,146.4,484a.61.61,0,0,0,.61.61h0a.61.61,0,0,0,.61-.61,20.41,20.41,0,0,1,20.28-20.39.61.61,0,0,0,0-1.22A20.4,20.4,0,0,1,147.55,442v-.06a.61.61,0,0,0-.61-.61" transform="translate(0 0)"/></g></svg>