<svg id="Слой_1" data-name="Слой 1" xmlns="http://www.w3.org/2000/svg" xmlns:xlink="http://www.w3.org/1999/xlink" viewBox="0 0 683.42 251.25"><defs><style>.cls-1{fill:none;}.cls-2{clip-path:url(#clip-path);}.cls-3{fill:#ed1c24;}</style><clipPath id="clip-path"><rect class="cls-1" x="-198.03" y="-411" width="1080" height="1080"/></clipPath></defs><title>contests-shop-4</title><g class="cls-2"><path class="cls-3" d="M227.16,156.28A11.1,11.1,0,1,1,216,145.18a11.1,11.1,0,0,1,11.11,11.1M362.1,20c10.2,5.73-27,63.26-85.71,93.77-4.25,18.19.41,30.33,4.41,29.81,12.25-3.71,7.13-34,7.13-34S310,99,311.73,98.1c8.82,27.6-5.61,68.24-33.24,69.27-35.16-1.17-32.87-41.17-32.87-41.17l-20.94,6.41,5.89-15.93s13.55-3.5,16.37-4.28C270.81,31.81,345.34,10.73,362.1,20m-80,77.76C295.9,95,350,37.43,338.73,38.48c-22.4,5.49-61.1,56.79-56.65,59.32m43.73-4.17v11.49s15.1-9.83,16.24-8c.41,5.17-18.68,48.8-19.08,55.41-.34,3.2,1.35,14.88,11.33,14.88a25.06,25.06,0,0,0,11.13-2.95c14.73-8,30.42-23.45,30.42-23.45s-3.75,9.71-2.11,17.46,9.78,10.91,18.5,7.71,20-10.95,24.24-16.09c-.65-1.66-3.09-9.44-3.09-9.44s-7.81,7.35-9.71,6.42,22.86-73.62,22.86-73.62H399.22c-4.09,18.49-27.57,66.67-43.48,68.75-5.45-.39,19.22-55.41,20.14-61.62,1.81-8.13-4.23-11.88-11.48-10.2-7.6,2.57-38.59,23.27-38.59,23.27M491.87,73.41h25.86L475.8,205H449.65s14.7-50.61,17.81-54.59c-20.81,26.32-39.32,15.88-42.6-5.85-3-26.24,6.55-51,29-65.47,21.44-13.38,31.85-3.26,34.83,1.91.56-1.22,3.2-7.58,3.2-7.58M481.11,98.62c.2-11-7.5-10.89-13.62-4-2.32,2.68-15,21.8-14.53,37.12.83,13,6.6,9.58,10.26,7.53,8.64-5.91,17.07-28,17.89-40.7M90.19,167.38c23.22,0,51.48-67.17,63.81-92.56,2.37-5,3.75-8.56,5.06-8.71,4.38,4.64-36.26,76.86-13.72,96.45a16.9,16.9,0,0,0,8,4.35c21.74,4.37,37-23.14,50-37.69l-6.54-6.52c-4.36,5.06-9.41,17.44-13.06,10.89C176.54,122,220.56,0,220.56,0H179.13c-4.34,7.25-50.48,111.82-59.21,113.3-1.43.69-2.15-.75-2.15-2.22,5-39.15,15.46-73.32,27.79-111.07H104.17C80.21,66.76,80,67.57,58.24,111.82,47.36,132.16,31.39,145.19,43,113.29H5.28c-7.27,19.57-10.32,51.87,13,54,.47,0,.95,0,1.39,0,25.8,0,53.81-65.77,56.67-68.62-2.16,22.5-12.44,49.38.71,63.09a18.79,18.79,0,0,0,13.1,5.53m452.88-23.61c9.24,13.45,35.57-11.82,35.57-11.82l6.08,9.35s-20.66,26.59-44.62,26.08c-11.27-.22-15-3.46-22.33-9.35-2.33,1.6-11,6.78-11,6.78l-4.55-12.31s6.52-3.53,9.61-5.38c-7-62,55-84.65,77.58-72,15.31,9.28,3.38,42.45-46.36,68.64m-1.66-11.42c26.81-21.24,38.22-41.19,32.57-45.11s-17.2,5.92-24.31,18.55-9.34,24.71-8.26,26.57m55.36,19.17c1.65,3.85,8.3,15.45,22.61,15.84,6,.19,12.63-1.86,22.67-7.32C675.73,141.69,684,95.79,683.4,87.12c-.15-18.55-13.11-15.9-15.29-15.23-18,6-33.74,28.52-33.74,28.52l7.8,7.81s7.41-14.1,14.54-14.1-4.2,27.51-6,31.58c-9.37,20.65-26.35,29.52-31,11.27-5.85-30,35.06-62.28,35.06-62.28H627s-46.58,36.27-30.24,76.85"/><path class="cls-3" d="M669.5,239.53h6.07v-7.43H669.5Zm-42.63,0h4.5v-20.1l10.26,20.26h3.3l10.37-20.47v20.31H660V213.67h-6.12L643.51,234,633.2,213.67h-6.33Zm-21.51-3.77c-5.18,0-8.69-4.08-8.69-9.16s3.51-9.16,8.69-9.16,8.69,4,8.69,9.16-3.51,9.16-8.69,9.16m0-22.72A13.56,13.56,0,1,0,619,226.6,13.31,13.31,0,0,0,605.36,213m-26.85,22.2h-14c1.41-2.2,2-5.5,2.77-11.52l.68-5.76h10.57ZM561,247.33v-7.8h22.72v7.8H588V235.23h-4.71V213.67H564.11l-1.1,9.68c-.73,6.44-1.52,9.79-3.14,11.88h-3.09v12.09Zm-23.63-21.46c-3.09,0-4.76-1.57-4.76-4.14s1.67-3.77,4.76-3.77h8.9v7.9Zm13.66,13.66V213.67H536.81c-6.39,0-9.21,3.87-9.21,8.06,0,3.82,1.89,6.81,6.07,7.8l-6.86,10h5.5l6.28-9.37h7.7v9.37Zm-42.37-32.46c4.76,0,7.12,2.25,7.12,6.13,0,3.56-2.36,6.13-7.12,6.13h-14.4V207.07Zm-19.47,32.46h5.08V224h14.24c8.22,0,12.51-4.4,12.51-10.94,0-6.81-4.29-10.73-12.51-10.73H489.21Zm-30.29,0H465v-7.43h-6.07Zm-21.19-3.77c-5.18,0-8.69-4.08-8.69-9.16s3.51-9.16,8.69-9.16,8.69,4,8.69,9.16-3.51,9.16-8.69,9.16m0-22.72a13.56,13.56,0,1,0,13.61,13.56A13.31,13.31,0,0,0,437.73,213M395.84,226.6c0-5.18,3.46-9.16,8.69-9.16s8.69,4,8.69,9.16-3.45,9.16-8.69,9.16-8.69-4-8.69-9.16m.11,8.74a10.81,10.81,0,0,0,9.42,4.82c6.91,0,12.72-5,12.72-13.56S412.28,213,405.37,213a10.55,10.55,0,0,0-9.42,5.08v-4.45h-4.71v37.59h4.71Zm-26.43,4.19h4.76V218h10.47v-4.29h-25.7V218h10.47Zm-19-17.8h4.82c-.37-1.94-3-8.69-12.36-8.69-7.38,0-13.09,5.91-13.09,13.56s5.76,13.56,13.14,13.56c9.27,0,12-6.91,12.3-8.69h-4.71c-.42.89-2.36,4.29-7.59,4.29-4.82,0-8.22-4.08-8.22-9.16s3.4-9.16,8.17-9.16a8.06,8.06,0,0,1,7.54,4.29m-48.47,4.55c3.77,0,5.81,1.68,5.81,4.4,0,3.09-2,4.55-5.81,4.55h-7.33v-9Zm15.18,13.24H322V213.67h-4.76ZM302.58,222h-7.85v-8.32H290v25.86h12.67c7.12,0,10.26-4.29,10.26-8.85,0-4.92-3.14-8.69-10.31-8.69m-34.2.26c5.18,0,7.75,2.62,7.75,6.33,0,4-2.56,6.23-7.75,6.23H255V222.25Zm-.16-4.71H255V207.12h23.51v-4.76H249.9v37.17h18.32c8.64,0,13.14-4,13.14-10.84,0-6.65-4.5-11.15-13.14-11.15m-48.61,22h6.07v-7.43h-6.07Zm-33.58,0h4.76v-11h14.5v11h4.76V213.67h-4.76v10.58h-14.5V213.67H186Zm-34.41,0h4.76l15-19.63v19.63h4.76V213.67h-4.76l-15,19.47V213.67h-4.76ZM164,205.76c-2.3,0-3.3-1.88-3.3-3.77v-.89h-4v1c0,4.19,2.41,7.43,7.28,7.43s7.28-3.25,7.28-7.43v-1h-4V202c0,1.94-1,3.77-3.3,3.77M137.11,226.6c0,5.13-3.35,9.16-8.38,9.16-5.18,0-8.59-4-8.59-9.16s3.4-9.16,8.59-9.16c5,0,8.38,4,8.38,9.16m-.1,8.48v4.45h4.76V213.67H137V218c-.63-1.36-3.51-4.92-9.16-4.92-6.81,0-12.62,5.13-12.62,13.56s5.81,13.56,12.62,13.56c5.86,0,8.53-3.77,9.16-5.08M86.59,228c-.58,5.92-1.31,7.59-4.87,7.59h-.63v4.29h1.41c5.55,0,7.54-3.61,8.32-11.57l1-10.36H102.5v21.57h4.76V213.67H88Zm-36,11.52h4.76v-11h14.5v11h4.76V213.67H69.81v10.58H55.31V213.67H50.55ZM22.8,235.44c-8.38,0-14-6.39-14-14.5,0-8,5.6-14.5,14-14.5s14,6.6,14,14.5-5.6,14.5-14,14.5m0,4.71a19.21,19.21,0,0,0,0-38.43A18.84,18.84,0,0,0,3.59,220.94c0,10.94,8.11,19.21,19.21,19.21"/></g></svg>