<svg xmlns="http://www.w3.org/2000/svg" width="103px" height="25px"><path fill-rule="evenodd" fill="rgb(24, 24, 24)" d="M88.089,15.485 C88.259,18.834 90.751,21.323 93.994,21.323 C96.323,21.323 97.989,20.304 99.240,18.117 L99.392,17.851 L101.763,19.414 L101.625,19.658 C100.020,22.489 97.381,23.985 93.994,23.985 C88.883,23.985 85.313,20.213 85.313,14.811 C85.313,9.475 88.992,5.602 94.061,5.602 C96.298,5.602 98.329,6.442 99.783,7.966 C101.327,9.588 102.153,11.870 102.169,14.567 L102.169,15.485 L88.089,15.485 ZM93.994,8.265 C91.210,8.265 88.881,10.163 88.216,12.926 L99.355,12.926 C98.869,10.123 96.751,8.265 93.994,8.265 ZM80.188,12.945 C80.188,10.144 78.620,8.334 76.195,8.334 C73.077,8.334 71.966,10.537 71.966,12.600 L71.966,23.744 L69.199,23.744 L69.199,12.945 C69.199,10.101 67.682,8.334 65.240,8.334 C63.230,8.334 61.078,9.937 61.078,12.323 L61.078,23.744 L58.312,23.744 L58.312,5.913 L61.078,5.913 L61.078,7.640 C62.219,6.364 63.845,5.670 65.745,5.670 C68.557,5.670 70.095,7.128 70.922,8.511 C72.181,6.699 74.199,5.670 76.532,5.670 C80.493,5.670 82.954,8.458 82.954,12.945 L82.954,23.744 L80.188,23.744 L80.188,12.945 ZM51.957,0.647 L54.723,0.647 L54.723,23.743 L51.957,23.743 L51.957,0.647 ZM45.635,22.146 C44.202,23.366 42.281,24.054 40.260,24.054 C37.785,24.054 35.533,23.118 33.919,21.417 C32.324,19.735 31.445,17.414 31.445,14.880 C31.445,12.344 32.323,10.016 33.919,8.326 C35.535,6.614 37.787,5.670 40.260,5.670 C42.254,5.670 44.177,6.362 45.635,7.587 L45.635,5.947 L48.368,5.947 L48.368,23.778 L45.635,23.778 L45.635,22.146 ZM40.126,8.507 C36.754,8.507 34.211,11.246 34.211,14.880 C34.211,18.494 36.754,21.219 40.126,21.219 C43.623,21.219 45.973,18.671 45.973,14.880 C45.973,11.067 43.623,8.507 40.126,8.507 ZM21.270,21.323 C23.598,21.323 25.265,20.304 26.516,18.117 L26.668,17.851 L29.038,19.414 L28.900,19.658 C27.295,22.489 24.657,23.985 21.270,23.985 C16.158,23.985 12.589,20.213 12.589,14.811 C12.589,9.475 16.268,5.602 21.337,5.602 C23.573,5.602 25.605,6.442 27.058,7.966 C28.603,9.588 29.428,11.870 29.444,14.567 L29.444,15.485 L15.364,15.485 C15.535,18.834 18.027,21.323 21.270,21.323 ZM26.632,12.926 C26.145,10.123 24.027,8.265 21.270,8.265 C18.486,8.265 16.156,10.163 15.492,12.926 L26.632,12.926 ZM3.614,23.778 L0.848,23.778 L0.848,5.913 L11.535,5.913 L11.535,8.576 L3.614,8.576 L3.614,23.778 Z"/></svg>